#!OML:ASF F:\VICON\USERDATA\INSTALL\rory3\rory3.ASF
:FULLY-SPECIFIED
:DEGREES
212
root 0.7566846346973406 17.815269014502505 37.30534891717472 2.250190958995729 2.6452352501000997 0.56829451396356
lfemur -19.30742513152142 1.9769381892127629 -21.57368504546434
ltibia 59.54016399633561
lfoot -0.3292891594066487 -11.238771666273047
ltoes -9.478708177601474
rfemur -28.15108580608849 5.006770096240319 28.029353159695994
rtibia 62.964274250259486
rfoot 3.4075233028124 -4.182553161210665
rtoes -1.1924770436844467
lowerback 14.15875037206682 -0.3990812821224255 0.5088242754871348
upperback -0.8865531004500553 -0.09124657109947154 1.1677899349159937
thorax -9.254957214318951 0.14356450444869262 0.9719972673055672
lowerneck -20.134902875274562 -4.98824739984487 -1.9793798397134683
upperneck 15.417132901687157 -6.7989302628042205 2.870641383504022
head 8.225173738944072 -3.0173774905155826 0.5174793973358476
lclavicle -1.9521729781560437e-15 1.1013548979497733e-15
lhumerus -50.086087363839766 -9.003518883509534 96.9942745963607
lradius 109.70452565970629
lwrist 46.74965693040575
lhand -17.852528945110606 6.114422487974054
lfingers 7.125020000000001
lthumb 8.2803983644402 36.068105866774985
rclavicle -1.952176533109819e-15 1.1013521049827522e-15
rhumerus -49.87269531005844 14.083560214968708 -101.9144270524207
rradius 113.13262954889028
rwrist -14.848367449804549
rhand -23.945384521286268 -111.07938602125935
rfingers 7.125020000000001
rthumb 3.9762020723959823 14.355497051725834
213
root 0.7245012557925335 17.71445940309152 33.74979498929564 1.9853242011288823 1.8571273263408468 0.02220406337229508
lfemur -15.023908108319892 2.6469576732805535 -20.162801798151413
ltibia 60.44929238672294
lfoot -0.7967726037222327 -11.540823190970912
ltoes -9.725210843874283
rfemur -25.35206855090958 5.7857122989244045 29.04597530658244
rtibia 63.4122900390838
rfoot 3.377519707057366 -3.906263863443885
rtoes -0.6423079829229336
lowerback 14.094287991297291 -0.41885924391193957 0.3963347870173364
upperback -0.8212663747204686 -0.017951672325060453 1.2403108958819944
thorax -9.453213549428629 0.015681875866806916 0.638759278065732
lowerneck -20.075237922532846 -4.930634999821781 -1.96120926015555
upperneck 15.369334491807368 -6.863123094037747 2.8800838680502396
head 8.215681388643786 -2.9925862019634963 0.5293806239890199
lclavicle -1.9521729781560437e-15 1.1013548979497733e-15
lhumerus -51.98279243388169 -9.374163512990553 96.80308133055266
lradius 108.96405953811494
lwrist 46.52312783550655
lhand -17.868943187430432 6.140143979568833
lfingers 7.125020000000001
lthumb 8.400278704354328 36.182398110248215
rclavicle -1.952176533109819e-15 1.1013521049827522e-15
rhumerus -49.7286248176569 14.093519720023787 -101.82116111075474
rradius 113.14294689979074
rwrist -15.095716871306003
rhand -24.001868839158778 -113.10791109842475
rfingers 7.125020000000001
rthumb 4.245539494058118 14.232644867005057
214
root 0.7344264442034116 17.73646720777161 35.5882960373617 2.184094589088616 2.1240589410695763 0.2881599308741112
lfemur -18.33889381319368 2.1506994590585635 -21.147430829484644
ltibia 61.0129154536897
lfoot -0.3163440908484565 -11.156270167190488
ltoes -9.831941129959695
rfemur -26.937891869347148 5.801119281184807 28.462802491836662
rtibia 63.71690190884105
rfoot 2.3119955018585374 -4.1913143912965625
rtoes 0.264904570866594
lowerback 14.120010704677169 -0.39189588345131904 0.4590184273464276
upperback -0.8225513991361596 -0.053030621987100734 1.243191554035699
thorax -9.259947232752621 0.18991429938738605 0.9098273693889971
lowerneck -20.092983160595992 -4.930654650959476 -1.9757226613148413
upperneck 15.447226480742984 -6.796199559726623 2.959646142861385
head 8.195961830942883 -2.9910708038475553 0.5306415299840759
lclavicle -1.9521729781560437e-15 1.1013548979497733e-15
lhumerus -51.59848998563348 -8.886982702886495 97.07677555840127
lradius 108.9853410368295
lwrist 46.744140505324324
lhand -17.80777720849308 6.191184232035071
lfingers 7.125020000000001
lthumb 8.364376866081763 36.07445702794366
rclavicle -1.952176533109819e-15 1.1013521049827522e-15
rhumerus -49.51249781870691 14.15418657945559 -101.73493217621845
rradius 113.25362721345931
rwrist -15.397356047174089
rhand -23.835014227828108 -108.09548492997789
rfingers 7.125020000000001
rthumb 3.9723060869162667 13.483440392855904
215
root 0.7715985367497037 17.8657787947137 39.997913925719885 2.576735814273582 3.0222133528495108 0.8287340349099908
lfemur -18.36536139951002 1.992983913630527 -21.292784440158556
ltibia 61.3476342714947
lfoot -1.4799031861948977 -11.43314836200335
ltoes -9.929091520027463
rfemur -25.36504874975462 6.235122650357255 29.132427133773763
rtibia 63.43970852575412
rfoot 1.7778147656336283 -4.443097268661337
rtoes 0.9982008267402893
lowerback 14.10765674084436 -0.38729423615795383 0.4552938003435695
upperback -0.7440059454096744 0.1359207933855724 1.372719732271196
thorax -9.396017815906987 0.15431835453862944 0.7512362874419756
lowerneck -19.94877417294263 -4.769845734685839 -1.922944570461
upperneck 15.370068406553466 -6.823542239447135 2.957819209871789
head 8.202973789431907 -2.9612767958286805 0.5427912828813185
lclavicle -1.9521729781560437e-15 1.1013548979497733e-15
lhumerus -53.022254831009036 -9.395009880208612 96.95400162265665
lradius 109.59808995369022
lwrist 46.72429441351928
lhand -17.728903181322 6.228002525598725
lfingers 7.125020000000001
lthumb 8.387886686376948 36.09884799262757
rclavicle -1.952176533109819e-15 1.1013521049827522e-15
rhumerus -49.2507632518582 14.263693808788894 -101.65200372583858
rradius 113.37159804177149
rwrist -15.64450579299581
rhand -24.03336586894664 -111.9853199126215
rfingers 7.125020000000001
rthumb 4.347431317932543 13.669584478508002
216
root 0.7428274078000587 17.80831018678779 36.57037922806033 2.3422636336944946 2.5476358066973606 0.4339470788779396
lfemur -18.53989527713413 1.9445814651750832 -21.132676394747524
ltibia 62.16295185216228
lfoot -1.0721024482247767 -11.03721976655494
ltoes -9.851717547733953
rfemur -23.65813132285222 6.4472620347459415 29.209052387126277
rtibia 63.40510938385295
rfoot 1.2667289309225485 -4.8610211284092815
rtoes 1.434289569832026
lowerback 14.12953706647898 -0.39568298343900205 0.4901296909152051
upperback -0.7009446371362456 0.3100869590562993 1.4603853278309407
thorax -9.315682563205423 0.2022119279201582 0.8480096933943624
lowerneck -20.012111368488117 -4.740846330885074 -1.9326462387721235
upperneck 15.395518715792873 -6.811703395490483 2.986391492122059
head 8.204319653241232 -2.979788213862979 0.5258645470158025
lclavicle -1.9521729781560437e-15 1.1013548979497733e-15
lhumerus -51.83444200899655 -8.839514503009061 97.31168842233875
lradius 110.40025957966934
lwrist 46.41485603202148
lhand -17.69575420584885 6.228472526733436
lfingers 7.125020000000001
lthumb 8.401794561507966 36.08078984533924
rclavicle -1.952176533109819e-15 1.1013521049827522e-15
rhumerus -48.92885575020848 14.406772588403422 -101.56460463227167
rradius 113.3324791640837
rwrist -15.501648302439905
rhand -23.775016552639247 -103.76007193081252
rfingers 7.125020000000001
rthumb 3.840335865448837 13.014541611951547
217
root 0.7483415430740963 17.82089843422595 37.54170622275122 2.432190002160251 2.7746911656623663 0.6091577084894442
lfemur -15.659978999561467 2.6990424351350226 -20.074939663709294
ltibia 63.25773137485038
lfoot -1.1362934216096205 -11.080359142174652
ltoes -9.527273354147672
rfemur -25.482008500080944 5.936863769244438 28.569941261739547
rtibia 63.53450482857283
rfoot 2.2905068130352952 -4.69240355272999
rtoes 1.4463432317275189
lowerback 14.15846114725589 -0.4170850196851745 0.47946850692196197
upperback -0.7276093206064532 0.3234263243762195 1.4585499934490125
thorax -9.352564120601846 0.19518370375788685 0.7573007461415269
lowerneck -20.018372381945237 -4.641046044423012 -1.9122010429664527
upperneck 15.34557820859035 -6.820819798870566 2.997770773046365
head 8.223796832520833 -2.9792403265710568 0.5251226231962294
lclavicle -1.9521729781560437e-15 1.1013548979497733e-15
lhumerus -51.16853616924401 -8.743442756314908 97.40313357911201
lradius 111.04899443438369
lwrist 46.19686186082211
lhand -17.672012552067823 6.259420894667553
lfingers 7.125020000000001
lthumb 8.457809045161179 36.14048471478682
rclavicle -1.952176533109819e-15 1.1013521049827522e-15
rhumerus -48.621202162273505 14.526280052754043 -101.47536647128477
rradius 113.203695537537
rwrist -15.628513886033588
rhand -23.674551790525296 -98.88362248742588
rfingers 7.125020000000001
rthumb 4.162063378074532 13.488502903801614
218
root 0.7532329749121447 17.836147347953574 37.070503420459154 2.486225263282658 2.627256046285167 0.593696159581911
lfemur -18.13847793096391 2.2560556789129436 -21.158738609031086
ltibia 63.74767051965005
lfoot 0.24799596420722891 -10.816275043289798
ltoes -9.266539912151833
rfemur -25.41707475424643 5.767188323979556 28.81699382539566
rtibia 63.863039948040075
rfoot 3.2114448235967217 -4.434817196501408
rtoes 0.5094398950218799
lowerback 14.174445346769279 -0.4439093847629972 0.5335682328447098
upperback -0.7242345743079011 0.44469321263287803 1.4974639182131608
thorax -9.465410164316086 0.14264708490978545 0.5744475158949938
lowerneck -20.117375719674612 -4.61626731035783 -1.921719201349293
upperneck 15.336772140399368 -6.791580967257487 3.0168152228310268
head 8.217342609020479 -3.0019088680874013 0.5109546379745941
lclavicle -1.9521729781560437e-15 1.1013548979497733e-15
lhumerus -51.05485813553387 -8.572843187970467 97.48528098472141
lradius 111.16402334030805
lwrist 46.49125845770151
lhand -17.67390701345597 6.279591807249227
lfingers 7.125020000000001
lthumb 8.450525992888878 36.11101611231479
rclavicle -1.952176533109819e-15 1.1013521049827522e-15
rhumerus -48.58593771508322 14.506451618432465 -101.45033175606135
rradius 113.04661287768135
rwrist -15.259984049998282
rhand -23.51880894282877 -95.52384186867747
rfingers 7.125020000000001
rthumb 3.8668263076938065 13.268944970252065
219
root 0.7529843709885098 17.849020834464316 37.23702789821194 2.5641882876637982 2.757194662947433 0.5620900563645732
lfemur -18.086737856669256 2.167047611275041 -21.222929878392296
ltibia 63.92302791346062
lfoot 2.6618665033499482 -10.596025684363372
ltoes -8.285701403189142
rfemur -24.173297562927683 5.827730681782963 29.42139920940624
rtibia 63.632907229527305
rfoot 3.8378473997247 -4.095158093805732
rtoes -0.19116094012133045
lowerback 14.200434463066536 -0.4384729217569527 0.5924843847569757
upperback -0.7244764945964711 0.5770992005002142 1.5520245171345066
thorax -9.494666787510335 0.15410110562362453 0.46036548634784974
lowerneck -20.19254201873004 -4.633336493824057 -1.9331492027283659
upperneck 15.238780739323918 -6.829506141204772 2.9985845385179966
head 8.194753917814673 -3.027010946629422 0.49531428428117097
lclavicle -1.9521729781560437e-15 1.1013548979497733e-15
lhumerus -50.219384867784605 -8.337977841074268 97.58650741375271
lradius 111.07510146772414
lwrist 46.24300262036551
lhand -17.657424384763726 6.350519072967988
lfingers 7.125020000000001
lthumb 8.477445853827447 36.143863763932224
rclavicle -1.952176533109819e-15 1.1013521049827522e-15
rhumerus -48.75062814167785 14.413338972815136 -101.45727356541289
rradius 112.91247645379276
rwrist -14.968220329269906
rhand -23.67198807292138 -95.32682303286846
rfingers 7.125020000000001
rthumb 4.166481910271589 13.509341475841367
